<svg width="48" height="48" xmlns="http://www.w3.org/2000/svg">

 <g>
  <title>background</title>
  <rect fill="none" id="canvas_background" height="402" width="582" y="-1" x="-1"/>
 </g>
 <g>
  <title>Layer 1</title>
  <path id="svg_2" fill="#ffffff" d="m41.472,13.252c-1.926,1.962 -5.079,1.995 -7.045,0.076c-1.97,-1.923 -2.006,-5.078 -0.085,-7.048l-2.107,-2.063c0,0 -0.002,0.004 -0.004,0.007l-4.28,-4.182l-27.812,28.46l4.266,4.168l2.156,2.105c1.906,-1.948 5.034,-1.986 6.986,-0.082c1.952,1.908 1.986,5.034 0.079,6.987l2.156,2.109l4.267,4.168l27.812,-28.462l-6.389,-6.243zm-7.596,14.86l-13.895,14.223l-2.212,-2.16c0.67,-2.658 -0.019,-5.581 -2.122,-7.632c-2.099,-2.052 -5.035,-2.673 -7.678,-1.944l-2.212,-2.162l13.896,-14.219l2.843,2.779l2.084,-2.133l-2.844,-2.779l6.254,-6.4l2.232,2.184c-0.656,2.644 0.038,5.547 2.122,7.591c2.093,2.046 5.018,2.676 7.652,1.959l2.214,2.161l-6.253,6.398l-2.728,-2.665l-2.086,2.136l2.733,2.663z"/>
  <rect id="svg_3" y="18.608" x="24.803" width="6.006" transform="matrix(-0.7153,-0.6988,0.6988,-0.7153,33.6482,53.9094) " height="2.984" fill="#ffffff"/>
 </g>
</svg>