<?xml version="1.0" standalone="no"?>
<!DOCTYPE svg PUBLIC "-//W3C//DTD SVG 20010904//EN"
 "http://www.w3.org/TR/2001/REC-SVG-20010904/DTD/svg10.dtd">
<svg version="1.0" xmlns="http://www.w3.org/2000/svg"
 width="464.000000pt" height="137.000000pt" viewBox="0 0 464.000000 137.000000"
 preserveAspectRatio="xMidYMid meet">
<metadata>
Created by potrace 1.15, written by Peter Selinger 2001-2017
</metadata>
<g transform="translate(0.000000,137.000000) scale(0.100000,-0.100000)"
fill="#000000" stroke="none">
<path d="M2815 1224 c-22 -2 -91 -9 -153 -15 l-113 -11 3 -42 3 -41 65 3 c36
1 84 5 107 8 42 5 42 5 50 -33 4 -21 8 -174 8 -340 l0 -303 46 0 c43 0 47 2
53 28 4 15 10 168 13 340 l6 312 104 0 104 0 -3 48 -3 47 -125 1 c-69 0 -143
-1 -165 -2z"/>
<path d="M610 1123 c-135 -22 -490 -126 -490 -142 0 -22 23 -71 33 -71 7 0 48
11 92 25 44 14 87 25 95 25 24 0 108 -330 150 -587 12 -72 12 -73 38 -67 67
17 73 22 68 56 -3 18 -12 81 -21 140 -16 117 -66 360 -90 440 -8 28 -14 53
-12 54 1 1 47 12 101 23 54 11 100 22 103 24 9 10 -18 87 -30 86 -7 -1 -23 -4
-37 -6z"/>
<path d="M1356 964 c-9 -8 -16 -23 -16 -33 0 -13 -10 -17 -52 -18 -108 -2
-185 -63 -218 -171 -24 -77 -26 -166 -5 -247 30 -112 82 -165 164 -165 38 0
49 5 82 40 l38 40 5 -43 c3 -23 12 -82 19 -132 l12 -90 35 3 c19 1 39 7 44 12
5 5 4 61 -2 137 -19 222 -23 374 -12 515 5 75 13 144 16 152 5 13 -3 16 -44
16 -33 0 -56 -6 -66 -16z m-19 -290 c2 -159 1 -174 -20 -215 -23 -45 -41 -55
-83 -45 -74 19 -106 267 -47 369 22 39 77 68 118 65 l30 -3 2 -171z"/>
<path d="M2295 964 c-50 -26 -95 -76 -128 -144 -30 -60 -32 -72 -32 -166 0
-94 2 -103 30 -149 17 -26 46 -56 65 -66 42 -23 126 -25 174 -5 42 17 103 71
121 106 13 26 13 29 -8 43 -36 23 -67 30 -67 15 0 -8 -14 -33 -30 -55 -80
-108 -180 -54 -180 96 l0 61 33 -8 c42 -9 164 -9 199 1 32 9 48 53 48 135 0
100 -48 152 -139 152 -31 0 -69 -7 -86 -16z m109 -60 c19 -18 22 -114 6 -145
-12 -22 -62 -25 -123 -8 -33 9 -37 13 -31 32 32 104 106 164 148 121z"/>
<path d="M1650 929 c-7 -11 -17 -63 -23 -115 -13 -115 1 -245 35 -313 68 -137
240 -116 304 37 25 60 38 207 28 302 l-9 85 -33 -2 c-61 -2 -85 -12 -77 -31 4
-9 10 -76 13 -148 5 -147 -11 -234 -49 -254 -46 -25 -80 18 -100 127 -12 60
-7 284 6 316 6 15 1 17 -39 17 -36 0 -48 -4 -56 -21z"/>
<path d="M3310 931 c-74 -23 -140 -84 -140 -129 0 -22 31 -48 64 -54 15 -2 22
5 30 30 21 72 84 110 136 82 26 -14 43 -83 35 -145 l-6 -52 -107 1 c-145 1
-191 -24 -207 -114 -16 -97 112 -186 222 -152 34 10 34 10 28 -17 -6 -26 -3
-29 35 -39 49 -12 43 -22 96 163 36 124 52 245 40 309 -17 90 -127 147 -226
117z m110 -338 c-1 -50 -27 -119 -51 -130 -50 -26 -122 -10 -140 31 -29 63 32
116 134 116 48 0 57 -3 57 -17z"/>
<path d="M3760 871 c-29 -109 -70 -493 -70 -658 l0 -103 45 0 44 0 3 112 3
113 35 -2 c68 -5 127 17 180 64 116 105 169 342 97 437 -46 59 -129 61 -199 5
-21 -16 -38 -28 -38 -26 0 3 6 23 14 45 8 22 12 43 9 46 -4 3 -30 6 -59 6
l-53 0 -11 -39z m235 -91 c54 -60 1 -281 -85 -354 -59 -49 -123 -25 -113 42
18 129 36 219 50 246 39 76 110 108 148 66z"/>
<path d="M813 858 c-19 -9 -23 -20 -25 -57 -4 -121 9 -257 39 -404 l17 -79 35
7 c20 4 39 10 42 13 4 4 0 52 -7 107 -8 55 -15 173 -17 262 l-2 163 -30 -1
c-16 0 -40 -5 -52 -11z"/>
<path d="M4323 773 c-34 -24 -99 -304 -105 -458 l-3 -60 41 -3 42 -3 6 48 c13
88 56 267 88 365 17 54 29 101 26 104 -11 10 -82 15 -95 7z"/>
</g>
</svg>
